<?xml version="1.0" encoding="UTF-8"?>
<!-- Generated by Pixelmator Pro 3.7.1 -->
<svg width="1024" height="1024" viewBox="0 0 1024 1024" xmlns="http://www.w3.org/2000/svg">
    <path id="Path" fill="#000000" stroke="none" d="M 512 320 C 412.588989 320 332 400.588989 332 500 C 332 599.411011 412.588989 680 512 680 C 611.411011 680 692 599.411011 692 500 C 692 400.588989 611.411011 320 512 320 Z M 512 360 C 589.320007 360 652 422.679993 652 500 C 652 577.320007 589.320007 640 512 640 C 434.679993 640 372 577.320007 372 500 C 372 422.679993 434.679993 360 512 360 Z"/>
    <path id="path1" fill="#000000" stroke="none" d="M 432 440 L 488 440 C 494.627411 440 500 445.372559 500 452 L 500 452 C 500 458.627441 494.627411 464 488 464 L 432 464 C 425.372589 464 420 458.627441 420 452 L 420 452 C 420 445.372559 425.372589 440 432 440 Z"/>
    <path id="path2" fill="#000000" stroke="none" d="M 432 488 L 592 488 C 598.627441 488 604 493.372559 604 500 L 604 500 C 604 506.627441 598.627441 512 592 512 L 432 512 C 425.372589 512 420 506.627441 420 500 L 420 500 C 420 493.372559 425.372589 488 432 488 Z"/>
    <path id="path3" fill="#000000" stroke="none" d="M 432 536 L 548 536 C 554.627441 536 560 541.372559 560 548 L 560 548 C 560 554.627441 554.627441 560 548 560 L 432 560 C 425.372589 560 420 554.627441 420 548 L 420 548 C 420 541.372559 425.372589 536 432 536 Z"/>
</svg>
