<?xml version="1.0" encoding="UTF-8"?>
<!-- Generated by Pixelmator Pro 3.7.1 -->
<svg width="1024" height="1024" viewBox="0 0 1024 1024" xmlns="http://www.w3.org/2000/svg">
    <filter id="filter1" x="0" y="0" width="1024" height="1024" filterUnits="userSpaceOnUse" primitiveUnits="userSpaceOnUse" color-interpolation-filters="sRGB">
        <feGaussianBlur stdDeviation="8"/>
    </filter>
    <path id="Path" fill="none" stroke="#ffffff" stroke-width="44" stroke-opacity="0.15" filter="url(#filter1)" d="M 836 512 C 836 690.940247 690.940247 836 512 836 C 333.059753 836 188 690.940247 188 512 C 188 333.059753 333.059753 188 512 188 C 690.940247 188 836 333.059753 836 512 Z"/>
    <path id="path1" fill="none" stroke="#ffffff" stroke-width="32" stroke-opacity="0.543561" d="M 836 512 C 836 690.940247 690.940247 836 512 836 C 333.059753 836 188 690.940247 188 512 C 188 333.059753 333.059753 188 512 188 C 690.940247 188 836 333.059753 836 512 Z"/>
    <radialGradient id="radialGradient1" cx="512" cy="512" r="248" fx="512" fy="512" gradientUnits="userSpaceOnUse">
        <stop offset="1e-05" stop-color="#ffffff" stop-opacity="0.652835"/>
        <stop offset="0.72" stop-color="#ffffff" stop-opacity="0.36"/>
        <stop offset="1" stop-color="#ffffff" stop-opacity="0.28"/>
    </radialGradient>
    <path id="path2" fill="url(#radialGradient1)" stroke="none" d="M 760 512 C 760 648.966614 648.966614 760 512 760 C 375.033386 760 264 648.966614 264 512 C 264 375.033386 375.033386 264 512 264 C 648.966614 264 760 375.033386 760 512 Z"/>
    <path id="path3" fill="none" stroke="#ffffff" stroke-width="10" stroke-opacity="0.14" d="M 760 512 C 760 648.966614 648.966614 760 512 760 C 375.033386 760 264 648.966614 264 512 C 264 375.033386 375.033386 264 512 264 C 648.966614 264 760 375.033386 760 512 Z"/>
    <radialGradient id="radialGradient2" cx="512" cy="512" r="84" fx="512" fy="512" gradientUnits="userSpaceOnUse">
        <stop offset="1e-05" stop-color="#ffffff" stop-opacity="0.72"/>
        <stop offset="1" stop-color="#ffffff" stop-opacity="0.5"/>
    </radialGradient>
    <path id="path4" fill="url(#radialGradient2)" stroke="none" d="M 594 512 C 594 557.287354 557.287354 594 512 594 C 466.712646 594 430 557.287354 430 512 C 430 466.712646 466.712646 430 512 430 C 557.287354 430 594 466.712646 594 512 Z"/>
    <path id="path5" fill="none" stroke="#ffffff" stroke-width="7" stroke-opacity="0.14" d="M 594 512 C 594 557.287354 557.287354 594 512 594 C 466.712646 594 430 557.287354 430 512 C 430 466.712646 466.712646 430 512 430 C 557.287354 430 594 466.712646 594 512 Z"/>
    <path id="path6" fill="none" stroke="#ffffff" stroke-width="14" stroke-opacity="0.096243" stroke-linecap="round" d="M 330 512 C 330 411.484131 411.484161 330 512 330 C 612.515808 330 694 411.484131 694 512"/>
</svg>
