<?xml version="1.0" encoding="UTF-8"?>
<!-- Generated by Pixelmator Pro 3.7.1 -->
<svg width="1024" height="1024" viewBox="0 0 1024 1024" xmlns="http://www.w3.org/2000/svg">
    <radialGradient id="radialGradient1" cx="512" cy="512" r="330" fx="512" fy="512" gradientUnits="userSpaceOnUse">
        <stop offset="1e-05" stop-color="#505d68" stop-opacity="1"/>
        <stop offset="0.55" stop-color="#313a43" stop-opacity="1"/>
        <stop offset="1" stop-color="#1f262d" stop-opacity="1"/>
    </radialGradient>
    <path id="Path" fill="url(#radialGradient1)" fill-rule="evenodd" stroke="none" d="M 512 196 C 686.520996 196 828 337.479004 828 512 C 828 686.520996 686.520996 828 512 828 C 337.479004 828 196 686.520996 196 512 C 196 337.479004 337.479004 196 512 196 Z M 512 292 C 633.502991 292 732 390.497009 732 512 C 732 633.502991 633.502991 732 512 732 C 390.497009 732 292 633.502991 292 512 C 292 390.497009 390.497009 292 512 292 Z"/>
    <path id="path1" fill="none" stroke="#ffffff" stroke-width="8" stroke-opacity="0.1" d="M 828 512 C 828 686.521973 686.521973 828 512 828 C 337.478027 828 196 686.521973 196 512 C 196 337.478027 337.478027 196 512 196 C 686.521973 196 828 337.478027 828 512 Z"/>
    <path id="path2" fill="none" stroke="#eaf9ff" stroke-width="6" stroke-opacity="0.1" d="M 732 512 C 732 633.502625 633.502625 732 512 732 C 390.497345 732 292 633.502625 292 512 C 292 390.497314 390.497345 292 512 292 C 633.502625 292 732 390.497314 732 512 Z"/>
    <radialGradient id="radialGradient2" cx="512" cy="512" r="252" fx="512" fy="512" gradientUnits="userSpaceOnUse">
        <stop offset="0.72" stop-color="#0e1419" stop-opacity="0"/>
        <stop offset="0.86" stop-color="#1b242b" stop-opacity="0.58"/>
        <stop offset="1" stop-color="#394751" stop-opacity="0.82"/>
    </radialGradient>
    <path id="path3" fill="url(#radialGradient2)" stroke="none" d="M 764 512 C 764 651.175781 651.175781 764 512 764 C 372.824249 764 260 651.175781 260 512 C 260 372.824219 372.824249 260 512 260 C 651.175781 260 764 372.824219 764 512 Z"/>
    <radialGradient id="radialGradient3" cx="462" cy="430" r="250" fx="462" fy="430" gradientUnits="userSpaceOnUse">
        <stop offset="1e-05" stop-color="#ffffff" stop-opacity="0.86"/>
        <stop offset="0.18" stop-color="#f4fdff" stop-opacity="0.62"/>
        <stop offset="0.42" stop-color="#ddf8ff" stop-opacity="0.34"/>
        <stop offset="0.72" stop-color="#b9e8f8" stop-opacity="0.14"/>
        <stop offset="1" stop-color="#a8deef" stop-opacity="0.07"/>
    </radialGradient>
    <path id="path4" fill="url(#radialGradient3)" stroke="none" d="M 750 512 C 750 643.443787 643.443787 750 512 750 C 380.556244 750 274 643.443787 274 512 C 274 380.556274 380.556244 274 512 274 C 643.443787 274 750 380.556274 750 512 Z"/>
    <path id="path5" fill="none" stroke="#fcffff" stroke-width="4.5" stroke-opacity="0.18" d="M 750 512 C 750 643.443787 643.443787 750 512 750 C 380.556244 750 274 643.443787 274 512 C 274 380.556274 380.556244 274 512 274 C 643.443787 274 750 380.556274 750 512 Z"/>
    <radialGradient id="radialGradient4" cx="512" cy="520" r="176" fx="512" fy="520" gradientUnits="userSpaceOnUse">
        <stop offset="0.48" stop-color="#102028" stop-opacity="0"/>
        <stop offset="0.78" stop-color="#1c2e38" stop-opacity="0.14"/>
        <stop offset="1" stop-color="#2e434f" stop-opacity="0.28"/>
    </radialGradient>
    <path id="path6" fill="url(#radialGradient4)" stroke="none" d="M 690 512 C 690 610.306702 610.306702 690 512 690 C 413.693329 690 334 610.306702 334 512 C 334 413.693359 413.693329 334 512 334 C 610.306702 334 690 413.693359 690 512 Z"/>
    <radialGradient id="radialGradient5" cx="500" cy="492" r="130" fx="500" fy="492" gradientUnits="userSpaceOnUse">
        <stop offset="1e-05" stop-color="#e7fbff" stop-opacity="0.58"/>
        <stop offset="0.2" stop-color="#beebfa" stop-opacity="0.34"/>
        <stop offset="0.52" stop-color="#5d7383" stop-opacity="0.66"/>
        <stop offset="1" stop-color="#223039" stop-opacity="0.82"/>
    </radialGradient>
    <path id="path7" fill="url(#radialGradient5)" stroke="none" d="M 642 512 C 642 583.796997 583.796997 642 512 642 C 440.202972 642 382 583.796997 382 512 C 382 440.203003 440.202972 382 512 382 C 583.796997 382 642 440.203003 642 512 Z"/>
    <path id="path8" fill="none" stroke="#ecfbff" stroke-width="3" stroke-opacity="0.12" d="M 642 512 C 642 583.796997 583.796997 642 512 642 C 440.202972 642 382 583.796997 382 512 C 382 440.203003 440.202972 382 512 382 C 583.796997 382 642 440.203003 642 512 Z"/>
    <filter id="filter1" x="0" y="0" width="1024" height="1024" filterUnits="userSpaceOnUse" primitiveUnits="userSpaceOnUse" color-interpolation-filters="sRGB">
        <feGaussianBlur stdDeviation="10"/>
    </filter>
    <g id="Group" filter="url(#filter1)">
        <radialGradient id="radialGradient6" cx="500" cy="482" r="112" fx="500" fy="482" gradientUnits="userSpaceOnUse">
            <stop offset="1e-05" stop-color="#ffffff" stop-opacity="0.66"/>
            <stop offset="0.44" stop-color="#d4f7ff" stop-opacity="0.24"/>
            <stop offset="1" stop-color="#d4f7ff" stop-opacity="0"/>
        </radialGradient>
        <path id="path9" fill="url(#radialGradient6)" stroke="none" d="M 624 512 C 624 573.855896 573.855896 624 512 624 C 450.144104 624 400 573.855896 400 512 C 400 450.144104 450.144104 400 512 400 C 573.855896 400 624 450.144104 624 512 Z"/>
    </g>
    <radialGradient id="radialGradient7" cx="512" cy="512" r="54" fx="512" fy="512" gradientUnits="userSpaceOnUse">
        <stop offset="1e-05" stop-color="#132630" stop-opacity="0.82"/>
        <stop offset="0.55" stop-color="#0b171e" stop-opacity="0.92"/>
        <stop offset="1" stop-color="#050b10" stop-opacity="1"/>
    </radialGradient>
    <path id="path10" fill="url(#radialGradient7)" fill-opacity="0.663354" stroke="none" d="M 566 512 C 566 541.823364 541.823364 566 512 566 C 482.176636 566 458 541.823364 458 512 C 458 482.176636 482.176636 458 512 458 C 541.823364 458 566 482.176636 566 512 Z"/>
    <radialGradient id="radialGradient8" cx="496" cy="492" r="40" fx="496" fy="492" gradientUnits="userSpaceOnUse">
        <stop offset="1e-05" stop-color="#ddfbff" stop-opacity="0.4"/>
        <stop offset="1" stop-color="#ddfbff" stop-opacity="0"/>
    </radialGradient>
    <path id="path11" fill="url(#radialGradient8)" fill-opacity="0.805614" stroke="none" d="M 552 512 C 552 534.09137 534.09137 552 512 552 C 489.9086 552 472 534.09137 472 512 C 472 489.908569 489.9086 472 512 472 C 534.09137 472 552 489.908569 552 512 Z"/>
</svg>
