<?xml version="1.0" encoding="UTF-8"?>
<!-- Generated by Pixelmator Pro 3.7.1 -->
<svg width="2500" height="2500" viewBox="0 0 2500 2500" xmlns="http://www.w3.org/2000/svg">
    <path id="Path" fill="none" stroke="#ffffff" stroke-width="117.5" stroke-opacity="0.812932" d="M 1618.75 1250 C 1618.75 1453.655029 1453.655029 1618.75 1250 1618.75 C 1046.344971 1618.75 881.25 1453.655029 881.25 1250 C 881.25 1046.344971 1046.344971 881.25 1250 881.25 C 1453.655029 881.25 1618.75 1046.344971 1618.75 1250 Z"/>
    <radialGradient id="radialGradient1" cx="1250" cy="1250" r="310" fx="1250" fy="1250" gradientUnits="userSpaceOnUse">
        <stop offset="1e-05" stop-color="#ffffff" stop-opacity="0.608697"/>
        <stop offset="0.72" stop-color="#ffffff" stop-opacity="0.36"/>
        <stop offset="1" stop-color="#ffffff" stop-opacity="0.393983"/>
    </radialGradient>
    <path id="path1" fill="url(#radialGradient1)" stroke="none" d="M 1560 1250 C 1560 1421.208252 1421.208252 1560 1250 1560 C 1078.791748 1560 940 1421.208252 940 1250 C 940 1078.791748 1078.791748 940 1250 940 C 1421.208252 940 1560 1078.791748 1560 1250 Z"/>
    <path id="path2" fill="none" stroke="#ffffff" stroke-width="12.5" stroke-opacity="0.14" d="M 1560 1250 C 1560 1421.208252 1421.208252 1560 1250 1560 C 1078.791748 1560 940 1421.208252 940 1250 C 940 1078.791748 1078.791748 940 1250 940 C 1421.208252 940 1560 1078.791748 1560 1250 Z"/>
    <radialGradient id="radialGradient2" cx="1250" cy="1250" r="105" fx="1250" fy="1250" gradientUnits="userSpaceOnUse">
        <stop offset="1e-05" stop-color="#ffffff" stop-opacity="0.72"/>
        <stop offset="1" stop-color="#ffffff" stop-opacity="0.5"/>
    </radialGradient>
    <path id="path3" fill="url(#radialGradient2)" stroke="none" d="M 1352.5 1250 C 1352.5 1306.609131 1306.609131 1352.5 1250 1352.5 C 1193.390869 1352.5 1147.5 1306.609131 1147.5 1250 C 1147.5 1193.390869 1193.390869 1147.5 1250 1147.5 C 1306.609131 1147.5 1352.5 1193.390869 1352.5 1250 Z"/>
    <path id="path4" fill="none" stroke="#ffffff" stroke-width="8.75" stroke-opacity="0.14" d="M 1352.5 1250 C 1352.5 1306.609131 1306.609131 1352.5 1250 1352.5 C 1193.390869 1352.5 1147.5 1306.609131 1147.5 1250 C 1147.5 1193.390869 1193.390869 1147.5 1250 1147.5 C 1306.609131 1147.5 1352.5 1193.390869 1352.5 1250 Z"/>
    <path id="path5" fill="none" stroke="#ffffff" stroke-width="17.5" stroke-opacity="0.08" stroke-linecap="round" d="M 1022.5 1250 C 1022.5 1124.355225 1124.355225 1022.5 1250 1022.5 C 1375.644775 1022.5 1477.5 1124.355225 1477.5 1250"/>
</svg>
